<?xml version="1.0" standalone="no"?>
<!DOCTYPE svg PUBLIC "-//W3C//DTD SVG 20010904//EN"
 "http://www.w3.org/TR/2001/REC-SVG-20010904/DTD/svg10.dtd">
<svg version="1.0" xmlns="http://www.w3.org/2000/svg"
 width="2640.000000pt" height="945.000000pt" viewBox="0 0 2640.000000 945.000000"
 preserveAspectRatio="xMidYMid meet">

<g transform="translate(0.000000,945.000000) scale(0.100000,-0.100000)"
fill="#000000" stroke="none">
<path d="M4345 9364 c-16 -2 -73 -8 -125 -14 -225 -27 -548 -83 -680 -118
-147 -40 -203 -57 -311 -92 -135 -44 -255 -89 -337 -126 -29 -13 -55 -24 -59
-24 -9 0 -100 -43 -253 -120 -197 -98 -376 -204 -550 -325 -40 -27 -79 -54
-87 -60 -9 -5 -25 -18 -37 -27 -11 -10 -77 -62 -146 -116 -69 -54 -159 -129
-200 -167 -151 -137 -385 -384 -502 -530 -66 -82 -129 -160 -139 -173 -11 -12
-19 -24 -19 -26 0 -3 -30 -48 -68 -100 -161 -228 -303 -482 -444 -796 -101
-224 -219 -598 -282 -894 -46 -214 -61 -322 -96 -700 -13 -144 -13 -556 0
-556 6 0 10 -19 10 -42 0 -60 37 -375 54 -461 8 -40 24 -121 36 -182 27 -141
108 -434 141 -510 4 -11 17 -50 28 -87 11 -37 29 -87 41 -112 11 -25 20 -54
20 -66 0 -23 295 -618 314 -635 7 -5 39 -53 72 -105 32 -52 61 -97 65 -100 25
-20 33 -80 9 -65 -21 13 -55 -18 -145 -130 -129 -161 -126 -152 -57 -148 31 2
86 8 122 13 103 14 264 22 275 13 6 -4 50 -53 100 -108 251 -282 401 -428 646
-630 239 -197 256 -208 571 -398 l324 -194 280 -107 c251 -97 344 -126 539
-171 33 -7 80 -20 105 -29 25 -8 68 -18 95 -22 28 -3 57 -10 65 -14 8 -4 40
-11 70 -15 30 -4 98 -17 150 -30 228 -56 336 -65 781 -65 l411 0 211 40 c117
22 313 58 437 80 194 35 260 52 485 127 255 83 267 89 623 269 l363 185 178
147 c98 81 268 224 378 319 180 155 214 190 344 350 79 98 158 192 175 209 32
34 105 60 133 48 20 -10 381 -21 381 -13 0 4 -7 13 -16 20 -9 8 -44 50 -77 94
-90 121 -134 163 -161 158 -13 -3 -26 -1 -29 4 -3 5 22 52 56 104 219 334 432
785 542 1149 38 124 68 231 80 285 43 194 68 323 80 420 8 60 19 138 24 172 5
34 12 127 16 207 4 81 12 149 16 152 21 13 6 349 -31 709 -42 406 -188 947
-358 1325 -58 131 -180 372 -231 458 -34 57 -61 105 -61 107 0 9 -254 381
-270 395 -3 3 -30 37 -60 75 -198 256 -529 584 -797 789 -205 158 -308 228
-542 367 -104 62 -461 239 -482 239 -8 0 -19 4 -25 9 -12 13 -212 90 -350 136
-207 68 -447 129 -649 164 -33 5 -87 15 -120 20 -191 33 -334 43 -670 46 -192
2 -363 2 -380 -1z m899 -153 c432 -58 812 -157 1181 -310 1025 -425 1860
-1207 2348 -2199 143 -291 224 -502 307 -807 115 -419 161 -764 161 -1204 0
-507 -73 -968 -227 -1431 -135 -405 -311 -764 -553 -1124 l-66 -99 -160 7
c-191 8 -227 11 -415 36 -137 19 -389 61 -472 79 -21 5 -38 6 -38 3 0 -3 -3
-3 -6 1 -3 3 41 59 99 125 595 678 907 1501 907 2393 0 333 -35 613 -114 920
-179 690 -560 1314 -1091 1788 -552 494 -1217 798 -1960 897 -188 25 -625 30
-821 9 -878 -93 -1640 -465 -2251 -1099 -619 -641 -974 -1480 -1007 -2381 -35
-923 304 -1862 914 -2534 78 -86 96 -111 82 -115 -21 -6 -138 -27 -297 -55
-212 -37 -446 -60 -619 -63 l-169 -3 -73 108 c-106 158 -201 321 -287 493
-289 579 -444 1170 -478 1820 -36 696 92 1397 372 2041 96 223 226 463 367
678 502 770 1245 1381 2102 1728 381 154 766 252 1190 303 177 21 228 23 555
20 298 -3 387 -7 519 -25z m-204 -1016 c356 -34 699 -122 1038 -266 754 -320
1395 -926 1766 -1668 123 -244 245 -595 292 -836 63 -319 77 -482 71 -807 -7
-369 -33 -542 -139 -908 -151 -525 -426 -1011 -799 -1411 l-98 -106 -128 24
c-70 13 -184 34 -253 47 -395 76 -729 110 -1004 103 -408 -10 -739 -99 -1019
-272 -39 -25 -75 -45 -80 -45 -4 0 -33 16 -63 35 -219 141 -479 226 -818 271
-271 36 -728 1 -1221 -92 -71 -13 -168 -31 -215 -40 -47 -9 -102 -19 -124 -24
-37 -8 -40 -7 -85 39 -68 69 -206 231 -285 335 -266 347 -488 808 -597 1236
-11 47 -25 94 -29 105 -13 31 -38 175 -62 355 -29 218 -31 596 -5 800 10 74
19 149 22 166 42 330 200 797 381 1128 522 954 1417 1600 2489 1796 266 49
669 64 965 35z m-1280 -5880 c330 -30 605 -115 859 -267 l74 -44 91 54 c257
155 541 239 891 263 154 10 212 9 400 -5 271 -20 651 -76 990 -146 89 -18 133
-26 410 -74 333 -58 631 -87 913 -91 l224 -3 84 -102 c47 -56 83 -104 80 -107
-3 -3 -103 4 -223 16 -485 46 -998 85 -1323 101 -113 6 -284 15 -380 21 -327
19 -1106 27 -1605 16 -581 -13 -522 -13 -1105 0 -495 11 -1304 3 -1610 -16
-91 -6 -259 -15 -375 -21 -115 -5 -264 -15 -330 -20 -66 -5 -190 -14 -275 -20
-151 -9 -259 -19 -700 -60 -119 -11 -226 -20 -238 -20 -20 0 -11 14 61 106
l83 105 260 4 c181 2 310 9 429 23 175 22 432 59 451 66 6 2 78 16 160 31 82
14 203 37 269 50 415 82 681 122 920 140 231 17 333 17 515 0z m935 -419 c165
0 575 2 910 5 336 2 744 0 909 -5 298 -8 298 -8 278 -28 -19 -20 -25 -20 -397
-8 -275 10 -526 11 -924 4 -300 -5 -710 -7 -911 -4 -557 7 -1426 6 -1705 -3
-215 -6 -253 -5 -269 8 -11 8 -18 17 -15 19 13 13 766 24 1259 18 311 -4 700
-7 865 -6z m-2276 -35 c26 -20 60 -17 -399 -41 -102 -6 -291 -19 -420 -29
-396 -33 -395 -33 -415 -11 -16 18 -15 19 37 24 85 8 613 46 843 60 303 19
326 19 354 -3z m4946 -1 c187 -11 390 -24 450 -30 61 -6 170 -14 243 -19 73
-5 135 -11 139 -14 3 -4 0 -13 -7 -22 -14 -17 -30 -16 -415 16 -126 10 -311
23 -410 28 -466 26 -427 22 -409 43 21 22 -5 22 409 -2z m-4709 -173 c336
-228 720 -403 1114 -506 582 -152 1223 -155 1807 -7 392 100 751 257 1092 479
l124 81 221 -3 c121 -1 307 -6 411 -11 552 -27 685 -35 683 -41 -4 -11 -242
-253 -333 -339 -447 -421 -1035 -769 -1650 -975 -522 -174 -1079 -250 -1655
-225 -1002 44 -1954 420 -2735 1080 -112 94 -465 442 -465 457 0 11 618 44
985 53 154 3 290 7 301 8 12 1 57 -22 100 -51z m1279 33 c342 -25 364 -29 464
-72 133 -57 250 -76 367 -60 77 12 249 68 278 91 35 28 704 60 1255 61 348 0
333 8 167 -89 -398 -234 -829 -382 -1321 -453 -140 -20 -198 -23 -460 -22
-251 0 -325 4 -452 22 -396 55 -764 167 -1097 333 -129 65 -305 163 -351 197
-18 12 43 13 500 8 286 -3 579 -11 650 -16z"/>
<path d="M4638 5861 c-23 -19 -88 -136 -88 -160 0 -8 43 -11 141 -11 l140 0
-7 23 c-14 46 -55 117 -81 142 -33 30 -71 32 -105 6z"/>
<path d="M4537 5268 c-4 -216 -10 -601 -14 -855 l-6 -463 172 0 172 0 -5 143
c-3 78 -8 414 -11 747 -3 333 -8 653 -12 713 l-6 107 -142 0 -142 0 -6 -392z"/>
<path d="M4520 3914 c-1 -5 -1 -79 0 -164 2 -359 82 -680 170 -680 35 0 51 13
74 59 59 116 96 366 96 654 l0 127 -154 0 c-85 0 -161 3 -170 6 -9 3 -16 2
-16 -2z"/>
<path d="M4597 3032 c-10 -99 -33 -228 -55 -297 l-19 -59 23 -53 c30 -68 99
-300 114 -386 10 -53 16 -67 28 -65 11 2 20 24 28 68 17 90 69 270 105 362
l31 77 -17 58 c-32 107 -44 169 -51 261 -4 51 -11 92 -16 92 -5 0 -22 -10 -38
-21 -33 -25 -71 -20 -106 12 l-21 20 -6 -69z m119 -277 c22 -33 21 -111 -2
-137 -15 -16 -20 -44 -25 -141 l-6 -122 -2 120 c-1 102 -4 124 -21 145 -27 34
-26 99 1 134 25 32 34 33 55 1z m-29 -467 c-2 -13 -4 -3 -4 22 0 25 2 35 4 23
2 -13 2 -33 0 -45z"/>
</g>
</svg>
